<?xml version="1.0" standalone="no"?>
<!DOCTYPE svg PUBLIC "-//W3C//DTD SVG 20010904//EN"
 "http://www.w3.org/TR/2001/REC-SVG-20010904/DTD/svg10.dtd">
<svg version="1.0" xmlns="http://www.w3.org/2000/svg"
 width="512.000000pt" height="512.000000pt" viewBox="0 0 512.000000 512.000000"
 preserveAspectRatio="xMidYMid meet">
<metadata>
Created by potrace 1.14, written by Peter Selinger 2001-2017
</metadata>
<g transform="translate(0.000000,512.000000) scale(0.100000,-0.100000)"
fill="#000000" stroke="none">
<path d="M839 5003 c-1 -10 -2 -29 -4 -43 -13 -138 -17 -168 -20 -185 -3 -11
-7 -49 -10 -85 -3 -36 -7 -76 -9 -90 -3 -14 -7 -56 -11 -95 -4 -38 -8 -86 -10
-105 -2 -19 -7 -64 -11 -100 -4 -36 -8 -72 -9 -80 -1 -8 -5 -51 -10 -95 -4
-44 -9 -87 -10 -95 -2 -8 -6 -49 -10 -90 -4 -41 -9 -83 -10 -92 -2 -9 -6 -49
-10 -90 -3 -40 -8 -84 -10 -98 -4 -31 -13 -107 -20 -180 -3 -30 -8 -71 -10
-90 -2 -19 -7 -64 -11 -100 -4 -36 -8 -76 -9 -90 -2 -14 -6 -54 -9 -90 -4 -36
-8 -81 -11 -100 -2 -19 -6 -57 -9 -85 -3 -27 -8 -72 -11 -100 -3 -27 -7 -68
-10 -90 -13 -112 -16 -133 -20 -170 -2 -22 -7 -69 -10 -105 -3 -36 -8 -81 -10
-100 -2 -19 -6 -53 -9 -75 -3 -22 -8 -69 -11 -105 -3 -36 -8 -72 -10 -80 -2
-8 -7 -53 -10 -100 -4 -47 -8 -92 -10 -100 -1 -8 -6 -44 -9 -80 -4 -36 -9 -81
-11 -100 -2 -19 -7 -59 -10 -87 -3 -29 -7 -77 -10 -105 -3 -29 -8 -69 -10 -88
-2 -19 -7 -57 -10 -85 -2 -27 -7 -70 -10 -95 -3 -25 -7 -67 -10 -95 -3 -27 -8
-66 -10 -85 -3 -19 -7 -66 -11 -105 -3 -38 -7 -81 -9 -95 -2 -14 -7 -50 -10
-80 -6 -70 -16 -158 -20 -190 -2 -14 -7 -54 -10 -90 -3 -36 -8 -76 -10 -90 -2
-14 -7 -54 -10 -90 -3 -36 -8 -78 -10 -95 -2 -16 -6 -56 -10 -88 l-7 -57 666
0 666 0 0 2156 c0 1761 2 2155 13 2151 7 -3 139 -88 292 -189 154 -101 314
-206 355 -233 194 -126 546 -358 553 -365 7 -6 -94 -155 -615 -905 -38 -55
-164 -236 -279 -403 l-210 -303 197 -292 c109 -161 234 -346 279 -412 45 -66
178 -264 297 -440 119 -176 251 -372 294 -435 l79 -115 744 0 743 0 218 271
c151 188 212 270 197 267 -12 -3 -53 -14 -92 -25 -38 -11 -108 -30 -155 -43
-47 -13 -155 -43 -240 -67 l-155 -45 -18 26 c-10 14 -92 141 -182 281 -90 140
-202 314 -248 385 -111 170 -299 462 -312 482 -5 9 -57 90 -115 179 -58 90
-143 223 -190 295 -47 73 -97 150 -112 173 l-27 40 27 12 c115 52 164 74 167
74 3 0 35 14 72 31 38 17 120 54 183 81 63 28 138 60 165 73 28 12 91 40 140
61 50 21 110 48 135 60 l45 22 1 517 0 517 -105 52 c-58 29 -124 59 -146 68
-22 9 -87 39 -145 66 -58 27 -127 60 -155 72 -66 30 -281 129 -375 173 -41 19
-129 59 -195 89 -66 31 -151 70 -190 88 -71 33 -119 55 -235 108 -134 61 -180
82 -380 174 -113 53 -231 107 -263 122 l-58 26 -399 0 c-374 0 -400 -1 -401
-17z"/>
</g>
</svg>
